<?xml version="1.0" standalone="no"?>
<!DOCTYPE svg PUBLIC "-//W3C//DTD SVG 20010904//EN"
 "http://www.w3.org/TR/2001/REC-SVG-20010904/DTD/svg10.dtd">
<svg version="1.0" xmlns="http://www.w3.org/2000/svg"
 width="918.000000pt" height="757.000000pt" viewBox="0 0 918.000000 757.000000"
 preserveAspectRatio="xMidYMid meet">

<g transform="translate(0.000000,757.000000) scale(0.100000,-0.100000)"
fill="#000000" stroke="none">
<path d="M0 3785 l0 -3785 4590 0 4590 0 0 3785 0 3785 -4590 0 -4590 0 0
-3785z m3980 3171 c0 -2 -14 -30 -31 -62 l-31 -59 26 -3 c35 -4 34 -31 -5 -99
-17 -30 -29 -56 -27 -58 2 -3 19 -1 36 4 26 8 32 7 32 -5 0 -19 -26 -70 -56
-110 -29 -38 -30 -47 -4 -39 24 8 25 -4 6 -70 -8 -26 -29 -65 -45 -86 -36 -44
-39 -54 -11 -39 42 22 17 -32 -43 -97 -29 -31 -30 -33 -9 -33 13 0 22 -6 22
-15 0 -20 -29 -66 -52 -83 -28 -20 -21 -34 7 -16 60 39 30 -30 -45 -106 -48
-47 -50 -50 -25 -50 22 0 24 -3 15 -19 -5 -11 -28 -30 -50 -42 -47 -26 -49
-36 -14 -49 32 -13 24 -26 -26 -41 -22 -7 -49 -23 -61 -35 l-22 -24 41 0 c66
0 57 -16 -24 -46 -51 -18 -78 -34 -82 -46 -6 -23 -23 -23 -66 3 -46 27 -48 8
-5 -44 28 -34 29 -37 10 -37 -22 0 -24 -6 -21 -52 2 -35 -6 -35 -32 -3 -20 25
-67 55 -88 55 -19 0 -10 -22 23 -53 l32 -31 -33 -6 -32 -5 66 -49 c36 -27 88
-64 115 -82 27 -18 45 -35 40 -38 -5 -3 -43 -11 -85 -18 -41 -6 -72 -16 -69
-21 3 -5 35 -23 72 -39 l66 -30 -40 -19 c-22 -10 -55 -21 -72 -25 -18 -3 -33
-9 -33 -12 0 -3 27 -33 60 -68 33 -34 60 -67 60 -73 0 -14 0 -14 -45 5 -60 25
-67 17 -39 -42 21 -44 48 -181 38 -192 -1 -2 -10 10 -19 27 -14 29 -35 42 -35
23 0 -5 9 -35 20 -67 20 -59 85 -155 127 -188 72 -57 70 -71 -7 -62 -57 7 -60
6 -60 -15 0 -12 12 -44 27 -70 15 -27 24 -52 21 -56 -10 -10 -56 22 -100 68
-21 22 -38 37 -38 34 0 -4 16 -39 35 -79 29 -62 42 -77 89 -107 31 -19 54 -39
53 -45 -2 -5 -19 -11 -38 -11 -19 -1 -40 -2 -46 -3 -25 -2 -12 -31 33 -78 57
-60 84 -93 84 -105 0 -6 -23 -7 -55 -3 -50 7 -55 6 -55 -12 0 -11 13 -37 30
-59 53 -70 30 -86 -47 -33 -43 30 -45 30 -38 8 4 -12 25 -58 47 -101 28 -56
44 -78 58 -78 20 0 25 -10 35 -78 7 -42 7 -43 43 -40 27 2 36 7 34 18 -2 8 13
-1 33 -20 l36 -35 -56 -18 c-30 -10 -55 -22 -55 -27 0 -13 102 -86 180 -128
81 -43 198 -82 249 -82 17 0 44 9 59 19 32 23 144 37 114 15 -15 -12 -11 -13
29 -14 53 0 77 15 81 51 l3 26 57 -14 c52 -13 62 -13 126 6 75 23 117 27 107
11 -10 -16 99 35 152 71 26 18 88 64 136 102 82 65 98 73 200 104 114 34 301
80 415 103 54 11 65 11 73 -1 7 -11 9 -10 9 5 0 13 5 17 20 13 10 -3 21 0 24
7 3 8 7 8 13 -1 6 -9 19 -10 43 -4 54 13 132 30 160 35 55 10 227 47 265 57
22 6 47 13 55 14 8 2 67 17 130 33 63 16 160 39 215 51 91 20 174 40 310 76
78 20 391 93 435 101 14 2 36 9 50 14 14 5 72 18 130 29 58 12 129 27 159 35
63 18 169 32 159 21 -8 -8 -212 -60 -343 -86 -55 -11 -109 -22 -120 -25 -11
-3 -27 -7 -35 -8 -8 -2 -28 -8 -43 -15 -16 -6 -34 -11 -41 -11 -7 0 -46 -9
-87 -20 -41 -11 -85 -20 -97 -20 -13 0 -38 -7 -55 -14 -18 -8 -58 -22 -90 -30
-32 -8 -65 -23 -75 -35 -16 -20 -66 -36 -227 -71 -22 -5 -71 -18 -110 -30 -38
-11 -86 -23 -105 -26 -19 -3 -87 -19 -150 -36 -63 -16 -135 -34 -159 -39 -23
-5 -61 -13 -82 -19 -127 -33 -119 -29 -119 -60 0 -26 -4 -30 -27 -30 -51 -1
-354 -75 -401 -98 -9 -5 -44 -14 -77 -21 -255 -51 -300 -67 -308 -108 -5 -27
-7 -27 29 -8 16 8 37 15 47 15 11 0 15 4 11 12 -4 7 -3 8 4 4 19 -12 290 53
277 66 -4 3 16 12 44 19 27 7 48 16 46 19 -3 4 7 5 21 2 15 -3 29 0 33 7 5 7
19 9 39 5 17 -4 29 -10 26 -15 -3 -5 0 -9 5 -9 6 0 11 4 11 9 0 5 9 7 21 4 16
-4 17 -8 7 -14 -7 -5 -8 -9 -2 -9 19 0 24 13 12 29 -7 9 -9 13 -4 9 4 -3 26 2
49 13 23 10 58 18 77 17 l35 -1 -40 -7 -40 -7 43 -2 c33 -1 42 -5 42 -18 0
-15 -2 -16 -10 -3 -6 10 -10 11 -10 3 0 -7 -9 -13 -21 -13 -11 0 -17 4 -14 10
3 6 -1 10 -10 10 -10 0 -13 -5 -9 -12 4 -6 3 -8 -3 -5 -6 4 -29 -3 -52 -14
-23 -11 -47 -17 -52 -13 -6 4 -14 2 -18 -3 -3 -5 -53 -22 -111 -38 -58 -16
-123 -37 -145 -47 -78 -35 8 -21 298 48 91 22 116 31 112 42 -4 11 -2 12 7 4
15 -12 144 11 286 52 48 13 168 43 267 66 99 22 236 54 305 71 288 71 754 174
834 185 42 6 45 5 52 -20 9 -36 -1 -56 -27 -56 -12 0 -99 -20 -193 -44 -94
-24 -232 -56 -306 -71 -135 -27 -315 -68 -465 -106 -44 -12 -107 -27 -140 -35
-57 -13 -222 -53 -365 -88 -36 -9 -110 -30 -165 -45 -145 -42 -228 -63 -247
-62 -10 0 -18 -4 -18 -9 0 -5 -6 -7 -14 -4 -19 7 -98 -15 -91 -26 11 -19 160
-68 190 -63 85 13 201 37 290 58 55 13 143 34 195 45 52 12 142 33 200 46 116
27 438 95 458 96 6 1 12 5 12 10 0 5 12 9 28 7 15 -1 34 1 42 4 8 3 33 8 55
11 22 3 52 7 68 10 62 13 77 14 77 7 0 -4 -19 -12 -42 -18 -24 -6 -79 -20
-123 -31 -44 -11 -152 -37 -240 -57 -88 -20 -230 -58 -315 -85 -85 -27 -171
-51 -190 -55 -19 -3 -73 -17 -120 -30 -47 -13 -136 -36 -198 -52 l-113 -28 26
-22 c28 -25 51 -28 105 -14 19 5 60 12 90 15 50 5 169 26 245 43 26 6 27 7 10
15 -16 7 -15 8 7 5 15 -2 25 0 22 4 -3 5 0 9 7 9 7 0 10 3 6 6 -3 3 -31 -2
-62 -11 -32 -9 -59 -14 -62 -12 -2 3 27 12 64 21 37 10 100 26 138 37 39 11
79 21 90 22 11 1 25 6 31 9 6 4 29 10 51 14 35 5 41 3 45 -14 5 -17 0 -21 -31
-25 -65 -9 -174 -37 -188 -48 -10 -9 -13 -8 -14 2 0 10 -2 11 -6 2 -2 -7 -17
-13 -31 -14 -15 0 -21 -3 -13 -6 11 -4 11 -7 0 -14 -27 -16 -2 -16 81 2 47 9
173 36 280 58 248 52 331 71 352 82 10 5 25 9 34 9 9 0 68 11 132 25 147 31
352 65 392 65 19 0 30 -5 30 -14 0 -21 -15 -28 -115 -53 -114 -27 -209 -69
-199 -86 4 -6 -3 -3 -15 7 -17 15 -20 16 -16 4 5 -11 -3 -19 -26 -27 -49 -17
-76 -14 -82 9 -6 25 -32 26 -103 3 -30 -9 -50 -21 -48 -27 6 -14 -82 -43 -156
-51 -30 -4 -88 -17 -130 -30 -41 -13 -102 -31 -135 -40 -33 -9 -85 -23 -115
-31 -30 -8 -63 -19 -72 -24 -10 -6 -25 -10 -33 -10 -24 0 -18 -13 18 -37 29
-20 39 -22 87 -14 30 5 84 17 119 26 35 9 66 14 68 11 3 -3 18 3 32 12 14 10
70 26 124 36 53 10 116 24 140 32 38 13 38 14 7 8 -19 -3 -64 -9 -100 -14 -36
-5 -80 -11 -97 -15 -18 -4 -33 -5 -33 -2 0 11 227 87 261 87 10 0 44 7 76 16
32 8 85 19 118 24 204 30 335 51 368 61 22 6 46 8 54 4 9 -3 30 -1 47 4 59 17
579 132 826 181 152 31 394 84 437 96 18 5 23 1 29 -20 9 -39 -1 -56 -36 -56
-16 0 -123 -23 -237 -50 -115 -28 -239 -58 -276 -67 -39 -9 -64 -19 -57 -23
11 -7 -57 -21 -130 -26 -63 -4 -341 -68 -365 -84 -5 -4 -37 -14 -70 -23 -33
-9 -107 -29 -165 -46 -58 -16 -121 -32 -140 -36 -19 -3 -93 -23 -165 -42 -71
-20 -138 -36 -147 -35 -10 0 -20 -4 -23 -9 -4 -5 -10 -7 -15 -4 -5 3 -21 -2
-36 -12 -15 -9 -34 -18 -43 -20 -9 -1 -17 -7 -19 -13 -2 -5 -7 -8 -12 -5 -4 3
-6 -3 -4 -13 4 -13 -4 -20 -38 -29 -76 -20 -267 -64 -288 -66 -17 -1 -19 -6
-14 -37 4 -19 8 -37 10 -39 2 -2 23 3 46 12 24 9 93 28 153 42 61 15 119 30
130 35 16 7 190 51 258 65 10 2 17 -1 14 -8 -4 -14 -68 -34 -171 -52 -44 -8
-82 -19 -85 -23 -6 -9 -45 -21 -174 -53 -43 -10 -87 -23 -96 -29 -10 -5 -31
-11 -47 -14 -16 -2 -30 -5 -31 -6 -4 -3 1 -2 -110 -24 -51 -10 -93 -23 -93
-28 0 -6 -7 -7 -16 -4 -14 5 -124 -20 -124 -29 0 -2 18 -1 40 1 54 5 60 -13 8
-21 -44 -7 -199 -42 -318 -72 -36 -9 -89 -28 -118 -41 -51 -24 -54 -27 -48
-55 8 -39 13 -44 34 -31 48 30 502 134 757 173 64 10 98 13 268 26 32 3 67 10
78 16 11 6 23 8 26 6 3 -3 23 1 44 8 22 8 54 14 72 13 18 -1 48 4 67 10 67 20
108 22 115 5 8 -23 -1 -28 -75 -42 -36 -7 -90 -21 -120 -32 -30 -10 -109 -30
-175 -44 -66 -14 -181 -41 -255 -60 -74 -19 -169 -42 -210 -50 -128 -26 -410
-96 -530 -131 -63 -19 -141 -39 -174 -44 -32 -5 -69 -16 -82 -25 -13 -8 -33
-15 -45 -15 -24 0 -77 -12 -394 -88 -126 -30 -266 -63 -310 -74 -44 -10 -118
-28 -165 -39 -47 -11 -130 -28 -186 -39 -113 -21 -681 -161 -752 -185 -56 -19
-72 -14 -72 23 0 28 3 30 83 50 45 12 114 30 153 41 38 10 113 28 165 40 52
11 141 34 199 51 58 16 116 30 130 30 22 1 20 4 -15 21 -22 10 -32 19 -22 19
9 0 17 5 17 10 0 6 -1 10 -3 10 -10 0 -211 -46 -307 -70 -377 -95 -441 -110
-495 -120 -33 -7 -96 -21 -140 -32 -44 -11 -109 -27 -145 -34 -36 -7 -81 -18
-100 -24 -46 -13 -45 -14 -58 15 -16 34 -15 45 3 45 8 0 15 5 15 11 0 5 -6 7
-12 3 -10 -5 -10 -3 0 7 11 12 14 12 22 0 7 -12 34 -9 172 23 90 21 224 50
298 66 247 52 592 144 465 123 -37 -6 -39 -5 -26 11 12 14 12 16 -2 10 -11 -4
-21 7 -35 39 -11 24 -25 48 -32 52 -9 5 -11 4 -6 -3 4 -7 3 -12 -3 -12 -5 0
-13 4 -16 10 -3 5 -19 7 -35 3 -17 -3 -30 -1 -30 4 0 5 10 9 22 9 14 -1 24 6
26 17 3 14 -4 17 -40 19 l-43 1 45 7 c51 8 49 9 -36 16 l-61 6 -7 -37 -7 -38
-92 6 c-54 3 -93 9 -95 16 -2 6 -9 11 -15 11 -6 0 -26 14 -44 32 -35 33 -44
28 -17 -10 15 -22 15 -22 -21 -16 -52 8 -103 31 -160 72 l-49 35 -105 -16
c-97 -14 -106 -14 -118 1 -7 10 -13 20 -13 23 0 3 59 19 130 35 72 16 130 32
130 35 0 4 -8 5 -19 2 -14 -3 -20 2 -25 22 -4 14 -4 30 -1 35 4 6 -1 10 -9 10
-9 0 -16 4 -16 10 0 5 7 7 15 4 8 -4 15 -1 15 5 0 6 12 12 28 12 16 1 20 3 10
6 -21 5 -179 -26 -376 -73 -138 -34 -199 -52 -176 -53 7 -1 14 -8 17 -16 5
-11 -1 -13 -26 -10 l-32 5 29 -9 c31 -11 76 -48 76 -64 0 -5 -8 1 -19 14 -16
20 -21 21 -34 10 -9 -7 -25 -10 -37 -6 -12 4 -27 2 -35 -5 -8 -7 -15 -7 -19
-1 -3 5 7 12 24 16 16 4 30 10 30 15 0 11 -83 0 -91 -13 -4 -5 -9 -5 -13 2 -4
6 -2 11 3 11 6 0 11 5 11 10 0 6 -9 10 -19 10 -11 0 -23 5 -26 10 -4 6 -16 8
-28 5 -12 -2 -16 -2 -9 1 18 8 15 18 -14 48 -15 14 -22 26 -17 26 6 0 8 12 5
26 -4 22 -2 25 19 22 18 -2 25 -10 27 -30 6 -49 10 -49 372 37 107 25 231 53
275 61 89 17 237 54 245 61 2 2 -20 2 -50 -1 -54 -6 -55 -6 -20 7 l35 14 -39
6 c-21 3 -47 16 -57 28 -21 24 -35 66 -26 75 9 9 149 -63 182 -93 19 -17 39
-27 53 -25 21 3 21 4 3 23 -10 11 -28 22 -41 24 -29 6 -39 15 -16 15 12 0 16
5 13 14 -4 9 2 17 13 21 11 3 19 11 17 17 -1 6 4 13 12 16 8 3 11 0 7 -7 -4
-6 -5 -11 -2 -11 3 0 8 4 11 10 3 5 -38 30 -92 56 -54 25 -114 54 -133 63 -19
9 -46 25 -60 37 -14 12 -50 29 -80 38 -136 41 -129 37 -174 110 l-18 31 26
-30 c14 -16 32 -38 41 -47 8 -10 20 -18 25 -18 13 0 -11 47 -55 109 -63 89
-91 208 -65 276 5 14 12 59 15 98 2 40 2 64 -1 55 -11 -37 -53 -12 -89 54 -8
15 -18 56 -22 92 l-8 64 -135 -33 c-129 -32 -451 -105 -463 -105 -3 0 -8 -13
-12 -30 -11 -51 -23 -43 -27 20 -1 33 -3 60 -3 60 0 0 45 9 100 20 79 15 430
91 530 114 19 5 20 12 17 155 l-3 150 25 7 c14 3 33 4 41 0 13 -5 15 20 14
192 -1 108 -5 186 -9 172 l-8 -25 -1 28 c-1 15 -7 27 -13 27 -10 0 -10 2 0 9
10 6 8 10 -10 14 -30 8 -44 -8 -55 -63 -8 -42 -12 -47 -63 -71 -30 -15 -58
-25 -62 -23 -3 2 -2 19 3 37 6 17 12 86 15 152 l5 120 -21 -60 c-16 -48 -33
-71 -82 -117 -57 -52 -148 -101 -148 -78 0 5 41 48 90 97 50 48 99 101 109
118 29 46 41 155 41 369 0 182 1 195 18 189 23 -8 147 -115 198 -172 l42 -45
21 42 c19 38 20 45 8 74 -18 42 -32 119 -18 99 7 -10 8 -2 4 27 -3 23 -3 42 0
42 3 0 18 -11 33 -25 14 -13 31 -22 36 -19 5 3 0 14 -12 24 -24 20 -27 45 -5
36 9 -3 18 1 21 9 4 8 10 12 15 9 5 -3 6 2 3 11 -5 12 16 38 70 90 78 75 87
89 61 99 -29 11 -15 26 24 26 49 0 56 10 30 44 -22 28 -18 46 11 46 10 0 20 4
22 8 2 5 24 23 51 41 43 29 52 41 48 64 -1 5 10 18 24 29 27 21 80 97 73 104
-3 2 -34 -12 -71 -31 -37 -19 -74 -35 -82 -35 -20 0 -19 29 2 52 32 36 -6 17
-54 -26 -26 -24 -70 -61 -98 -81 -57 -44 -225 -115 -272 -115 -17 0 -39 -7
-48 -16 -15 -15 -27 -15 -90 3 -18 5 -18 3 -5 -10 19 -20 120 -53 189 -62 75
-10 111 -47 47 -47 -20 0 -25 -5 -23 -22 2 -20 -2 -21 -73 -21 -41 1 -106 4
-144 9 -57 7 -75 13 -99 37 -34 34 -33 34 -40 9 -13 -51 -72 -36 -143 35 -41
41 -54 49 -54 34 0 -30 -15 -23 -56 29 -64 78 -77 92 -99 106 l-21 14 22 -67
c12 -36 24 -87 28 -114 6 -47 5 -47 -17 -36 -12 7 -37 27 -55 45 -18 19 -35
34 -37 34 -3 0 -5 -20 -5 -45 0 -35 -4 -45 -17 -45 -11 0 -4 -11 23 -35 21
-19 44 -34 49 -34 6 -1 3 4 -5 9 -8 5 -10 10 -4 10 6 0 19 -10 30 -22 13 -14
14 -19 4 -14 -8 4 -6 0 5 -8 11 -9 25 -14 32 -12 7 3 13 1 13 -4 0 -6 7 -10
15 -10 8 0 15 5 15 11 0 7 9 9 21 6 15 -4 19 -2 15 9 -11 28 15 13 92 -52 136
-118 132 -111 132 -204 l0 -80 -54 6 -54 6 -4 -41 -4 -41 63 0 63 0 0 -31 0
-31 -52 4 c-29 2 -60 8 -70 12 -13 6 -17 0 -23 -33 -10 -57 -2 -64 62 -58 60
6 84 1 78 -16 -2 -7 -9 -38 -15 -69 -14 -70 -40 -82 -40 -19 0 22 -4 42 -8 45
-4 2 -26 2 -49 -1 -39 -5 -41 -7 -46 -45 -7 -50 -11 -54 -41 -39 -12 7 -34 11
-47 9 -20 -2 -24 -9 -27 -45 -3 -40 -5 -43 -33 -43 -26 0 -29 3 -29 35 0 23
-6 37 -18 44 -27 15 -71 0 -85 -29 -19 -38 -51 -33 -55 7 -3 26 -9 34 -28 38
-13 3 -35 7 -48 10 -27 6 -31 19 -41 168 l-7 87 -73 0 c-62 0 -74 -3 -78 -17
-3 -10 -18 -60 -33 -112 l-28 -94 -90 7 c-49 3 -149 6 -223 6 l-133 0 0 208 0
209 117 6 c64 4 121 11 127 17 7 7 -1 21 -25 46 l-34 36 55 -3 55 -3 -3 53 -4
53 44 -6 c130 -16 198 -18 198 -4 0 8 -14 22 -30 31 -45 27 -37 37 33 37 85 0
95 8 73 54 -19 40 -15 56 15 56 24 0 24 20 1 51 -10 13 -24 36 -31 52 -8 15
-18 27 -22 27 -18 0 -121 106 -134 138 -18 42 -19 79 -3 84 16 6 3 34 -41 93
-39 51 -50 118 -57 345 -6 189 -1 218 34 187 26 -24 35 -21 52 15 19 40 37 47
42 16 2 -18 10 -24 36 -26 40 -4 41 -16 2 -39 -32 -18 -38 -32 -17 -35 6 0 17
-2 22 -2 23 -3 35 -18 29 -40 -4 -18 2 -29 30 -49 26 -20 37 -38 43 -70 7 -33
13 -43 31 -45 17 -3 22 -10 22 -32 0 -35 23 -60 56 -60 33 0 30 -15 -5 -29
l-29 -12 27 -29 c14 -15 57 -49 95 -74 54 -37 74 -46 96 -41 22 5 30 1 44 -20
9 -14 25 -25 35 -25 10 0 36 -13 58 -29 22 -16 60 -39 84 -51 55 -28 56 -29
40 -40 -14 -8 41 -18 131 -23 27 -1 37 -6 35 -17 -2 -12 8 -14 48 -12 135 6
300 65 403 144 l55 41 -34 29 -34 29 25 17 c43 30 194 159 226 194 105 114
176 212 302 418 l16 25 13 -33 c18 -43 33 -41 33 6 0 34 4 39 43 59 42 21 57
26 57 19z m-860 -1136 c0 -5 -10 -10 -22 -10 -19 0 -20 2 -8 10 19 13 30 13
30 0z m31 -547 c-12 -20 -14 -14 -5 12 4 9 9 14 11 11 3 -2 0 -13 -6 -23z
m-18 -38 c-3 -9 -8 -14 -10 -11 -3 3 -2 9 2 15 9 16 15 13 8 -4z m-1138 -302
l100 -29 -3 -79 c-2 -44 -7 -82 -13 -83 -5 -2 -7 -8 -3 -13 3 -5 -5 -9 -17 -9
-12 0 -19 -3 -16 -7 9 -8 -47 -33 -74 -33 -21 0 -22 4 -19 66 1 27 -4 47 -15
58 -23 22 -35 20 -36 -6 0 -22 -1 -22 -9 -3 -5 11 -9 14 -9 8 -1 -18 -130
-101 -169 -109 -26 -5 -38 -2 -57 16 -29 27 -31 49 -9 91 8 17 14 33 11 35 -2
3 -16 -22 -30 -55 -14 -32 -30 -62 -36 -66 -17 -10 -13 -45 10 -95 25 -56 46
-75 117 -107 54 -25 123 -35 252 -34 l35 0 -32 -14 c-53 -22 -241 -48 -305
-41 -93 9 -126 31 -154 101 -32 79 -41 155 -24 207 13 38 13 41 -11 59 l-24
19 85 81 85 81 135 -6 c105 -4 157 -11 235 -33z m5849 -170 c10 -24 -6 -35
-76 -48 -35 -7 -153 -32 -263 -54 -110 -23 -234 -48 -275 -56 -92 -17 -165
-32 -251 -50 -36 -8 -89 -15 -119 -16 -43 -2 -54 -6 -58 -22 -5 -19 -6 -19
-22 3 l-17 23 -79 -17 c-43 -9 -144 -32 -224 -51 -80 -19 -244 -58 -365 -86
-121 -28 -235 -57 -252 -65 l-33 -13 0 34 c0 29 4 35 33 44 29 9 209 49 392
87 79 16 340 75 460 104 68 17 224 50 233 50 1 0 7 -11 12 -24 8 -22 12 -23
52 -15 24 5 72 13 108 19 35 6 67 15 70 19 3 4 16 10 30 13 14 3 68 17 121 31
53 15 148 36 210 47 63 12 152 29 199 39 110 24 107 24 114 4z m-5509 -73 c3
-5 -1 -10 -9 -10 -8 0 -18 5 -21 10 -3 6 1 10 9 10 8 0 18 -4 21 -10z m-20
-30 c-3 -5 -13 -10 -21 -10 -8 0 -14 5 -14 10 0 6 9 10 21 10 11 0 17 -4 14
-10z m81 -14 c26 -19 15 -27 -22 -17 -16 5 -23 10 -16 10 7 1 10 6 7 11 -9 15
8 12 31 -4z m554 -41 c0 -4 -88 -45 -98 -45 -11 0 13 19 43 34 29 15 55 21 55
11z m5191 -57 c-7 -7 -59 -21 -161 -43 -36 -7 -119 -27 -184 -44 -141 -37
-146 -37 -146 -11 0 21 6 23 155 55 44 9 103 23 130 30 28 7 83 19 123 26 39
7 72 17 73 23 0 6 4 2 9 -9 4 -11 5 -23 1 -27z m-5246 -8 c-14 -27 -55 -60
-55 -43 0 6 61 72 68 73 1 0 -4 -13 -13 -30z m2790 -21 c9 -27 6 -29 -67 -45
-35 -7 -121 -27 -193 -44 -71 -16 -182 -41 -245 -55 -63 -14 -247 -57 -408
-96 -161 -39 -299 -68 -308 -65 -8 3 -14 14 -12 23 2 12 27 24 82 40 122 35
1090 260 1128 262 9 1 20 -8 23 -20z m1039 -124 c8 -42 27 -52 70 -37 17 6 54
13 82 17 46 6 52 4 56 -13 3 -11 3 -25 -1 -31 -4 -5 -70 -24 -146 -40 -247
-53 -579 -132 -795 -188 -202 -52 -375 -88 -475 -97 -38 -3 -133 -20 -210 -36
-77 -17 -194 -42 -260 -55 -66 -13 -169 -35 -230 -50 -60 -14 -191 -44 -290
-66 -99 -22 -232 -54 -295 -71 -63 -16 -140 -36 -170 -43 -30 -8 -122 -30
-203 -50 -148 -36 -148 -36 -175 -16 -41 29 -67 60 -56 69 5 5 61 20 124 35
244 56 300 70 460 108 243 58 431 107 553 145 175 55 595 157 877 215 25 5
106 25 180 44 144 36 421 97 425 93 1 -2 5 -15 8 -29 7 -26 6 -27 -111 -59
-146 -40 -234 -69 -247 -83 -7 -7 -4 -8 8 -4 19 7 556 133 715 168 110 25 110
25 93 87 -6 18 -6 30 -1 27 4 -2 11 -21 14 -40z m-4886 -40 c51 -24 98 -42
106 -39 8 3 17 0 21 -6 5 -8 11 -8 21 1 8 6 14 8 14 3 0 -5 20 -10 45 -11 29
-1 43 2 39 9 -4 5 12 -1 35 -14 38 -21 39 -23 16 -26 -23 -3 -24 -5 -9 -20 15
-15 15 -16 -2 -23 -11 -3 -22 -5 -26 -2 -5 2 -8 0 -8 -6 0 -6 -7 -8 -15 -5 -8
4 -22 4 -30 0 -25 -9 -2 -50 31 -56 24 -4 32 -14 48 -59 11 -30 22 -49 24 -43
2 7 15 12 28 12 23 0 24 -2 24 -75 0 -43 4 -75 10 -75 6 0 10 17 11 38 0 20 4
46 8 56 7 19 8 19 30 -3 20 -20 21 -29 19 -144 -2 -67 -7 -122 -12 -122 -5 0
-18 17 -28 38 -19 36 -46 53 -34 21 3 -9 6 -27 6 -40 0 -13 11 -34 25 -46 36
-31 55 -168 28 -196 -22 -23 -14 -31 18 -20 16 6 32 8 35 5 3 -3 -4 -8 -15
-12 -33 -10 -25 -28 9 -21 17 3 30 1 30 -4 0 -5 -12 -11 -27 -13 -16 -3 -5 -3
24 -1 99 7 108 19 117 145 4 57 18 84 39 76 12 -5 15 -33 16 -167 1 -89 4
-166 7 -171 3 -5 0 -9 -6 -9 -27 0 -104 110 -78 110 8 0 7 4 -4 10 -21 13 -51
2 -44 -16 3 -7 1 -16 -4 -19 -6 -4 -10 2 -10 12 0 16 -6 18 -42 15 -32 -4 -37
-7 -25 -14 10 -5 21 -7 25 -4 4 2 14 1 22 -5 10 -6 11 -9 3 -9 -7 0 -13 -5
-13 -11 0 -6 9 -9 20 -6 15 4 20 0 20 -14 0 -10 -6 -19 -12 -19 -9 0 -9 -3 1
-9 8 -5 20 -7 28 -4 7 3 13 0 13 -6 0 -6 -9 -11 -20 -11 -11 0 -20 -5 -20 -11
0 -6 9 -8 21 -4 14 5 19 3 15 -4 -4 -5 -22 -13 -41 -17 -23 -4 -35 -12 -35
-23 0 -13 9 -15 48 -12 56 4 54 -6 -3 -12 -35 -3 -40 -8 -43 -30 -3 -21 0 -26
12 -21 12 4 15 1 14 -12 -1 -11 2 -39 6 -64 8 -40 10 -42 16 -20 7 23 8 24 15
5 4 -11 11 -29 16 -40 5 -11 10 -30 12 -42 5 -38 14 -36 25 7 5 22 6 40 1 40
-5 0 -10 -12 -10 -27 l-2 -28 -4 28 c-2 15 -9 27 -14 27 -5 0 -9 9 -9 20 0 11
4 20 10 20 5 0 7 -6 4 -14 -4 -9 3 -13 23 -12 38 1 49 -26 58 -145 5 -72 11
-102 21 -106 8 -3 14 -11 14 -19 0 -8 5 -14 10 -14 6 0 10 -8 10 -18 0 -10 4
-22 9 -28 8 -8 29 -94 46 -181 4 -18 12 -34 18 -34 7 -1 -1 -5 -18 -9 -24 -6
-26 -8 -7 -9 15 -1 22 -7 22 -21 0 -11 6 -23 14 -26 13 -5 26 -31 31 -64 4
-27 17 -62 21 -57 3 2 0 15 -5 28 -6 18 -5 28 6 38 13 12 14 11 9 -7 -6 -18
-4 -20 21 -16 36 7 43 14 13 14 -47 0 20 30 100 45 60 11 70 16 70 32 0 9 -6
13 -14 10 -11 -4 -13 -1 -9 10 5 12 1 14 -18 8 -18 -6 -21 -4 -13 5 18 18 58
8 69 -17 12 -27 25 -30 25 -6 0 14 3 13 16 -5 8 -12 12 -27 8 -34 -4 -6 -3 -8
4 -4 5 3 19 -6 30 -21 l19 -26 71 11 c90 15 102 15 102 -2 0 -8 -25 -20 -64
-30 -94 -26 -145 -45 -120 -46 12 0 29 -10 38 -22 9 -13 14 -17 11 -11 -4 9 2
11 24 7 16 -3 69 3 118 15 130 30 266 48 315 42 24 -4 39 -9 33 -13 -21 -13
-384 -87 -453 -91 -74 -6 -112 -17 -56 -17 60 0 74 -10 74 -48 0 -40 -9 -39
-12 1 -3 32 -6 33 -25 10 -8 -10 -12 -13 -10 -8 3 7 -10 9 -36 6 -33 -3 -38
-5 -22 -12 11 -4 32 -8 48 -8 41 -1 32 -18 -14 -25 -53 -9 -43 -20 16 -18 25
1 45 -2 45 -8 0 -5 -11 -10 -24 -10 -43 0 -38 -19 6 -23 41 -3 40 -4 -10 -5
-71 -3 -58 -22 14 -22 51 0 55 2 49 20 -5 17 -2 20 21 20 26 0 26 -1 10 -13
-16 -12 -17 -18 -8 -43 10 -28 10 -28 11 -5 1 20 4 22 13 13 10 -10 8 -21 -9
-55 -11 -23 -28 -58 -36 -78 l-16 -37 -168 1 c-100 0 -152 3 -128 7 22 4 33 8
25 9 -8 2 1 9 20 16 l35 13 -32 1 c-57 2 -35 21 25 22 31 1 65 1 74 0 10 -1
26 2 35 8 22 12 -176 13 -216 1 l-26 -8 25 -1 25 -2 -25 -14 c-14 -8 -20 -15
-15 -15 6 0 3 -5 -5 -10 -13 -9 -13 -11 0 -21 12 -9 11 -10 -7 -6 -24 5 -79
-46 -68 -63 3 -6 -3 -10 -14 -10 -12 0 -21 -4 -21 -9 0 -6 10 -8 21 -6 12 3
18 1 15 -3 -4 -4 -17 -7 -29 -8 -31 -2 -57 -14 -57 -28 0 -16 -63 -38 -94 -32
-14 3 -30 -2 -37 -10 -8 -10 -8 -14 0 -14 6 0 11 5 11 10 0 7 6 7 18 1 20 -11
34 -9 72 6 14 6 59 10 100 11 l75 0 -70 -9 c-39 -4 -82 -12 -95 -17 -22 -8
-19 -9 18 -8 23 0 42 4 42 8 0 5 15 7 33 7 19 -1 25 -3 13 -6 -36 -9 4 -21 43
-12 58 13 185 19 174 8 -5 -5 -53 -12 -106 -16 -53 -3 -97 -9 -97 -12 0 -3 37
-5 82 -3 l83 3 -50 -32 c-51 -33 -99 -56 -147 -70 -21 -6 -28 -4 -28 7 0 8 -4
14 -10 14 -5 0 -10 -12 -10 -27 0 -35 -35 -58 -325 -213 -135 -72 -148 -85
-161 -169 -6 -36 -4 -41 12 -41 31 0 353 113 348 122 -3 5 -2 8 3 7 4 -1 19
-1 33 0 19 1 21 4 11 10 -11 7 -7 13 17 25 17 9 39 15 49 14 44 -3 53 2 53 31
0 28 3 30 73 46 39 10 140 37 222 60 195 55 430 110 575 135 183 32 166 24
166 76 l-1 46 70 19 c83 22 616 152 865 210 279 66 330 80 330 94 0 25 -26 36
-56 24 -31 -12 -261 -67 -409 -99 -99 -21 -515 -121 -610 -147 -33 -9 -89 -24
-125 -34 -36 -9 -73 -20 -82 -24 -14 -6 -19 0 -24 34 -4 23 -8 41 -11 41 -2 0
-79 -18 -171 -39 -220 -53 -226 -53 -230 -19 -2 18 2 28 15 32 45 12 236 56
315 72 48 9 93 23 100 31 6 8 7 13 2 12 -29 -5 -44 3 -43 24 1 16 2 18 6 5 2
-10 11 -18 20 -18 12 0 14 7 9 30 -3 18 -2 29 3 25 5 -3 12 -23 16 -45 4 -22
11 -40 16 -40 5 0 9 4 9 8 0 4 8 8 18 9 9 1 37 8 62 16 25 8 86 22 135 32 90
17 121 24 205 45 25 7 81 20 125 30 44 10 123 28 175 40 132 30 183 41 187 37
4 -5 -638 -163 -717 -177 -75 -13 -158 -36 -180 -50 -23 -14 12 -24 58 -16
181 33 804 194 910 235 114 45 826 223 1046 261 103 18 455 103 677 164 94 26
248 56 279 56 8 -1 2 -7 -15 -15 -29 -13 -29 -13 -5 -14 14 0 43 4 65 8 22 5
64 12 93 15 l52 5 0 -29 c0 -45 -5 -46 455 61 116 27 242 56 280 65 39 9 115
26 170 39 105 25 115 23 115 -21 0 -18 -12 -24 -97 -43 -54 -13 -125 -31 -158
-41 -33 -10 -89 -24 -125 -30 -73 -13 -87 -19 -70 -30 8 -5 2 -10 -15 -14 -15
-4 -30 -5 -33 -1 -3 3 2 5 11 5 10 0 17 4 17 9 0 5 -9 7 -20 4 -24 -6 -24 -3
-4 -42 9 -18 12 -36 8 -41 -12 -10 -164 -50 -191 -50 -12 0 -24 -8 -27 -17 -5
-13 -9 -14 -15 -5 -11 19 -56 -1 -56 -24 0 -11 5 -22 10 -26 6 -4 2 -8 -7 -8
-10 0 -18 8 -19 18 -1 11 -4 9 -9 -8 l-8 -25 -1 28 c-1 19 -5 27 -13 23 -7 -3
-21 -9 -30 -12 -10 -4 -19 -16 -19 -28 -2 -20 -2 -20 -6 2 -4 20 -23 32 -23
14 0 -5 -13 -7 -30 -4 -24 3 -30 1 -30 -14 0 -12 -3 -15 -8 -7 -5 8 -21 8 -62
-4 -30 -8 -61 -15 -67 -16 -7 0 -13 -5 -13 -11 0 -6 -5 -4 -10 4 -5 8 -10 10
-10 5 0 -6 -14 -11 -31 -11 -17 -1 -35 -8 -40 -15 -5 -9 -9 -10 -9 -2 0 6 -9
9 -20 6 -11 -3 -20 -9 -20 -13 0 -4 -11 -5 -25 -2 -15 2 -25 0 -25 -7 0 -7 -4
-10 -9 -6 -13 8 -91 -18 -91 -30 0 -5 -5 -3 -10 5 -7 11 -10 12 -10 2 0 -9 -7
-11 -21 -7 -13 5 -19 3 -15 -3 8 -14 -41 -21 -54 -8 -8 8 -9 6 -5 -7 5 -12 2
-17 -10 -17 -31 0 -53 -19 -48 -40 5 -19 11 -20 69 -16 69 5 124 25 70 26 -36
0 -31 7 9 11 17 2 33 8 36 12 4 5 18 10 32 10 14 1 23 5 20 10 -3 6 26 11 48
9 4 -1 22 3 40 9 19 5 52 12 74 15 35 4 68 11 100 20 79 23 177 41 245 47 48
4 57 3 35 -4 -16 -5 -41 -10 -55 -11 -14 -1 -31 -6 -39 -12 -7 -6 -20 -11 -30
-13 -9 -1 -38 -9 -66 -17 -27 -8 -76 -20 -108 -26 -81 -16 -65 -23 19 -9 38 6
79 11 92 11 12 0 25 4 28 9 3 5 14 9 24 9 10 0 31 5 47 12 36 14 54 19 76 21
9 1 17 5 17 10 0 5 9 5 20 2 11 -4 20 -2 20 4 0 6 7 8 15 5 8 -4 15 -2 15 4 0
6 11 9 25 8 13 -2 22 1 19 5 -3 5 -13 9 -22 10 -10 0 -12 3 -5 5 7 3 21 0 33
-6 23 -12 64 -4 55 11 -4 5 -11 9 -16 9 -6 0 -7 -4 -4 -10 3 -5 -1 -10 -9 -10
-8 0 -17 4 -20 9 -6 9 112 42 264 72 52 11 109 24 125 29 17 5 64 14 105 21
41 6 197 41 347 78 l271 68 10 -22 c11 -24 2 -47 -20 -51 -21 -3 -190 -44
-378 -91 -96 -25 -195 -49 -220 -55 -25 -5 -49 -14 -55 -19 -5 -5 -19 -9 -31
-9 -13 0 -25 -4 -28 -9 -3 -5 -35 -14 -71 -20 -36 -6 -95 -16 -131 -22 -48 -9
-64 -15 -60 -25 5 -13 -6 -19 -28 -15 -5 1 -12 -2 -15 -7 -3 -6 -22 -12 -41
-13 -19 -2 -41 -11 -47 -19 -11 -13 -14 -13 -23 0 -8 12 -10 12 -10 1 0 -8 -7
-11 -20 -8 -11 3 -20 1 -20 -4 0 -19 -19 -8 -23 14 -4 19 -4 18 -6 -5 0 -16
-5 -28 -11 -28 -5 0 -9 6 -7 13 3 17 -34 14 -218 -21 -190 -36 -315 -66 -342
-81 -11 -5 -51 -13 -89 -16 -66 -5 -68 -3 -15 17 13 5 22 11 19 13 -6 7 -73
-17 -151 -53 -34 -16 -102 -39 -152 -52 -100 -26 -142 -47 -159 -81 -13 -27
-48 -40 -166 -64 -47 -10 -139 -31 -205 -47 -66 -17 -128 -30 -137 -30 -10 1
-18 -3 -18 -9 0 -5 -12 -9 -26 -9 -15 0 -57 -8 -93 -19 -36 -10 -92 -24 -123
-31 -32 -7 -55 -17 -52 -22 3 -5 -7 -6 -23 -3 -22 5 -25 4 -13 -5 12 -9 11
-10 -7 -5 -13 4 -104 -15 -220 -46 -221 -57 -493 -123 -843 -204 -129 -30
-325 -77 -436 -105 -110 -27 -208 -50 -216 -50 -10 0 -19 12 -23 30 -5 23 -11
29 -23 26 -97 -31 -503 -136 -524 -136 -25 0 -28 3 -28 35 0 19 -3 35 -7 35
-12 0 -511 -134 -622 -166 l-53 -16 40 -39 c23 -21 48 -39 57 -39 8 0 70 14
137 30 141 35 151 36 146 13 -2 -11 -21 -22 -53 -31 -130 -35 -195 -56 -195
-62 0 -4 25 -29 55 -55 62 -53 84 -55 159 -14 31 17 40 18 47 7 15 -23 10 -28
-51 -45 -66 -18 -83 -35 -95 -98 -13 -69 -14 -87 -3 -111 11 -23 11 -23 47 -5
58 29 171 63 191 58 10 -3 21 1 24 8 2 7 19 15 38 18 59 9 1599 411 1618 422
5 3 406 107 646 168 88 22 144 17 89 -8 -90 -42 -216 -88 -283 -104 -94 -23
-472 -121 -602 -156 -90 -24 -162 -43 -635 -165 -384 -99 -830 -212 -850 -214
-11 -1 -27 -5 -35 -8 -8 -3 -44 -13 -80 -22 -36 -10 -72 -21 -80 -26 -26 -16
10 -40 80 -51 35 -5 67 -12 71 -14 7 -5 3 -128 -5 -170 -3 -11 -5 -35 -5 -52
-1 -32 -5 -29 -145 115 -159 163 -160 163 -272 312 -219 289 -268 387 -245
489 10 47 1 59 -24 31 -68 -75 19 65 107 174 31 38 31 39 7 32 -60 -18 -96
-19 -96 -2 0 11 17 19 56 27 59 12 91 25 104 43 5 6 5 0 1 -13 -5 -21 4 -15
57 31 35 31 86 80 113 108 42 44 50 58 54 101 l5 49 58 21 c31 12 68 32 80 45
l22 24 -25 0 c-23 0 -30 10 -68 105 -41 103 -60 128 -60 81 0 -58 -166 -247
-317 -359 -95 -71 -193 -144 -222 -165 -64 -47 -105 -62 -152 -56 l-46 6 -5
-253 c-3 -140 -4 -256 -2 -258 2 -2 41 3 86 13 54 10 85 13 92 6 15 -15 6 -19
-95 -41 -51 -11 -95 -21 -96 -23 -2 -1 -8 -38 -13 -82 -6 -43 -13 -87 -16 -98
-6 -19 -5 -19 18 -4 22 15 120 48 140 48 4 0 8 -6 8 -14 0 -14 -22 -25 -95
-47 -54 -16 -68 -28 -54 -45 9 -11 8 -14 -2 -14 -11 0 -11 -2 -2 -8 9 -6 1
-18 -26 -40 -42 -35 -106 -124 -113 -157 -3 -13 -13 5 -28 53 l-24 73 17 112
c9 62 28 175 43 252 20 112 27 183 31 357 5 205 6 217 25 221 22 6 19 34 -3
29 -68 -16 -72 -16 -60 7 7 11 15 21 20 21 4 0 32 18 62 41 30 22 77 52 106
65 29 14 70 45 91 70 30 33 47 44 69 44 44 0 210 148 243 218 21 44 28 52 47
47 19 -4 25 2 40 45 18 51 18 51 54 45 39 -7 53 4 92 75 9 18 26 34 37 37 20
5 29 43 10 43 -27 0 -95 191 -84 237 5 18 3 22 -10 17 -13 -5 -16 2 -16 42 0
47 -14 52 -22 9 -5 -28 -70 209 -70 254 1 20 4 56 8 80 5 38 4 43 -9 38 -13
-5 -18 3 -22 31 -4 20 -15 58 -26 84 -10 26 -19 70 -19 98 0 36 -6 59 -21 80
-19 24 -20 33 -10 61 6 17 11 48 11 67 0 35 0 35 -20 17 -11 -10 -22 -16 -24
-14 -2 2 -9 58 -14 124 -6 66 -14 133 -18 149 -4 19 -3 27 3 23 18 -12 24 33
30 221 l6 182 -39 0 c-90 1 -127 16 -174 67 -37 41 -90 122 -90 139 0 15 60
-3 138 -41z m6647 -130 c-320 -89 -350 -95 -343 -73 5 14 28 21 208 58 142 30
222 38 135 15z m-305 -265 c0 -5 -8 -10 -17 -11 -10 0 -29 -3 -43 -5 -15 -3
-21 -1 -15 5 6 5 21 11 35 14 14 2 28 5 33 6 4 0 7 -3 7 -9z m-90 -19 c0 -12
-190 -58 -314 -75 -88 -12 -12 13 119 39 77 15 147 32 155 36 20 11 40 11 40
0z m-5653 -17 c-3 -3 -12 -4 -19 -1 -8 3 -5 6 6 6 11 1 17 -2 13 -5z m5749
-121 c-8 -8 -52 -21 -206 -58 -58 -15 -130 -33 -160 -41 -129 -36 -283 -64
-269 -50 3 3 44 15 90 25 46 11 179 44 294 74 200 53 267 66 251 50z m-1079
-159 c-3 -3 -12 -4 -19 -1 -8 3 -5 6 6 6 11 1 17 -2 13 -5z m-2074 -129 c-3
-9 -8 -14 -10 -11 -3 3 -2 9 2 15 9 16 15 13 8 -4z m-2646 -1 c-3 -3 -12 -4
-19 -1 -8 3 -5 6 6 6 11 1 17 -2 13 -5z m4318 -70 c-22 -7 -55 -13 -72 -13
-18 -1 -33 -5 -33 -10 0 -5 -10 -7 -22 -4 -19 4 -20 3 -8 -6 9 -7 10 -11 3
-11 -16 0 -23 13 -15 27 8 12 130 35 143 27 5 -3 9 -1 9 5 0 6 8 7 18 4 13 -6
8 -10 -23 -19z m-3665 -77 c0 -7 18 -43 40 -80 22 -36 40 -70 40 -75 0 -16
-65 0 -88 22 -49 44 -60 95 -30 134 14 16 38 16 38 -1z m4033 -14 c-7 -2 -19
-2 -25 0 -7 3 -2 5 12 5 14 0 19 -2 13 -5z m1196 -17 c-2 -2 -17 -6 -34 -10
-22 -5 -26 -4 -15 4 14 9 59 15 49 6z m-2162 -12 c-3 -3 -12 -4 -19 -1 -8 3
-5 6 6 6 11 1 17 -2 13 -5z m2092 -8 c-2 -2 -17 -6 -34 -10 -22 -5 -26 -4 -15
4 14 9 59 15 49 6z m-69 -15 c0 -10 -41 -21 -225 -62 -77 -17 -169 -37 -205
-45 -111 -24 -234 -55 -255 -64 -11 -4 -47 -13 -80 -20 -33 -6 -75 -15 -92
-20 -23 -6 -33 -5 -33 3 0 12 185 63 334 92 44 9 83 18 87 20 4 3 26 6 48 7
23 1 41 4 41 8 0 4 6 7 13 7 14 1 161 35 267 62 89 22 100 24 100 12z m-5725
-21 c-3 -5 -18 -9 -33 -9 l-27 1 30 8 c17 4 31 8 33 9 2 0 0 -3 -3 -9z m3430
-20 c-11 -5 -29 -9 -40 -9 l-20 0 20 9 c11 5 29 9 40 9 l20 0 -20 -9z m-3422
-37 c-13 -2 -33 -2 -45 0 -13 2 -3 4 22 4 25 0 35 -2 23 -4z m4102 -45 c-27
-11 -66 -24 -85 -28 -19 -4 -44 -11 -55 -14 -11 -4 -4 2 15 13 19 11 53 23 75
26 22 4 47 11 55 16 8 5 22 8 30 8 8 0 -7 -9 -35 -21z m-4128 -28 c-1 -11 -5
-20 -9 -20 -10 0 -10 4 -2 24 8 22 13 20 11 -4z m4693 -14 c0 -3 -4 -8 -10
-11 -5 -3 -10 -1 -10 4 0 6 5 11 10 11 6 0 10 -2 10 -4z m-4653 -12 c-3 -3
-12 -4 -19 -1 -8 3 -5 6 6 6 11 1 17 -2 13 -5z m4563 -16 c0 -18 -2 -20 -9 -8
-6 8 -7 18 -5 22 9 14 14 9 14 -14z m35 13 c3 -5 1 -12 -5 -16 -5 -3 -10 1
-10 9 0 18 6 21 15 7z m-3925 -147 c14 -13 40 -26 57 -30 29 -6 31 -4 26 15
-9 34 42 22 87 -21 14 -13 54 -44 89 -68 l64 -45 -89 -3 c-129 -5 -169 4 -213
43 -38 35 -95 127 -85 138 9 9 36 -4 64 -29z m510 -24 c0 -5 -5 -10 -11 -10
-5 0 -7 5 -4 10 3 6 8 10 11 10 2 0 4 -4 4 -10z m3830 -124 c0 -3 -4 -8 -10
-11 -5 -3 -10 -1 -10 4 0 6 5 11 10 11 6 0 10 -2 10 -4z m30 0 c0 -3 -4 -8
-10 -11 -5 -3 -10 -1 -10 4 0 6 5 11 10 11 6 0 10 -2 10 -4z m-60 -15 c0 -9
-53 -31 -76 -31 -31 0 -11 19 29 28 23 6 43 10 45 11 1 1 2 -3 2 -8z m-100
-25 c0 -3 -4 -8 -10 -11 -5 -3 -10 -1 -10 4 0 6 5 11 10 11 6 0 10 -2 10 -4z
m-4627 -233 c-7 -2 -21 -2 -30 0 -10 3 -4 5 12 5 17 0 24 -2 18 -5z m4917 -43
c-8 -5 -23 -10 -32 -10 -9 0 -25 -3 -35 -7 -17 -6 -17 -6 1 15 20 23 55 33 71
20 6 -6 4 -12 -5 -18z m-4783 -6 c-3 -3 -12 -4 -19 -1 -8 3 -5 6 6 6 11 1 17
-2 13 -5z m-152 -14 c-3 -5 -10 -10 -16 -10 -5 0 -9 5 -9 10 0 6 7 10 16 10 8
0 12 -4 9 -10z m4779 -21 c-3 -5 -10 -7 -15 -4 -5 4 -9 2 -9 -3 0 -5 -26 -15
-57 -22 -32 -7 -87 -23 -123 -36 -48 -17 -66 -20 -72 -11 -12 19 -9 27 8 27 8
0 12 -4 9 -10 -11 -18 11 -11 34 11 12 12 25 19 28 16 2 -3 22 1 44 8 22 8 45
12 52 10 6 -3 30 4 52 14 40 18 61 18 49 0z m-4747 5 c-3 -3 -12 -4 -19 -1 -8
3 -5 6 6 6 11 1 17 -2 13 -5z m131 -1 c-10 -2 -26 -2 -35 0 -10 3 -2 5 17 5
19 0 27 -2 18 -5z m1205 -30 c-7 -2 -19 -2 -25 0 -7 3 -2 5 12 5 14 0 19 -2
13 -5z m62 -63 c-3 -5 -12 -7 -20 -3 -21 7 -19 13 6 13 11 0 18 -4 14 -10z
m3000 -10 c3 -5 1 -10 -4 -10 -6 0 -11 5 -11 10 0 6 2 10 4 10 3 0 8 -4 11
-10z m100 -20 c-3 -5 -14 -10 -23 -10 -15 0 -15 2 -2 10 20 13 33 13 25 0z
m-3108 -16 c-3 -3 -12 -4 -19 -1 -8 3 -5 6 6 6 11 1 17 -2 13 -5z m3420 -20
c-3 -3 -12 -4 -19 -1 -8 3 -5 6 6 6 11 1 17 -2 13 -5z m-2370 -40 c-3 -3 -12
-4 -19 -1 -8 3 -5 6 6 6 11 1 17 -2 13 -5z m-310 -80 c-3 -3 -12 -4 -19 -1 -8
3 -5 6 6 6 11 1 17 -2 13 -5z m2562 -8 c-7 -7 -196 -57 -249 -66 -27 -5 -49
-4 -55 2 -6 6 -3 7 9 2 14 -5 17 -4 12 5 -5 8 -3 11 5 10 8 -2 39 4 69 14 30
9 78 19 105 23 28 3 52 8 54 10 6 6 55 5 50 0z m-2639 -16 c-8 -5 -19 -10 -25
-10 -5 0 -3 5 5 10 8 5 20 10 25 10 6 0 3 -5 -5 -10z m2235 -20 c-3 -5 -11
-10 -16 -10 -6 0 -7 5 -4 10 3 6 11 10 16 10 6 0 7 -4 4 -10z m-3838 -6 c-3
-3 -12 -4 -19 -1 -8 3 -5 6 6 6 11 1 17 -2 13 -5z m3798 -4 c-3 -5 -14 -10
-23 -10 -15 0 -15 2 -2 10 20 13 33 13 25 0z m-3575 -20 c0 -5 -12 -10 -27 -9
l-28 1 25 8 c14 4 26 8 28 9 1 1 2 -3 2 -9z m4195 0 c-3 -5 -14 -10 -23 -10
-9 0 -39 -9 -67 -19 -61 -23 -103 -29 -107 -16 -2 6 15 14 37 19 22 5 60 14
85 21 57 16 83 18 75 5z m-555 -41 c0 -15 5 -31 10 -34 6 -3 10 -17 10 -29 0
-30 -21 -38 -175 -70 -109 -23 -171 -38 -322 -80 -29 -8 -65 -17 -80 -19 -54
-10 -129 -28 -188 -47 -67 -21 -380 -101 -580 -149 -71 -17 -197 -49 -280 -71
-82 -21 -196 -51 -252 -66 -107 -28 -112 -32 -113 -94 0 -20 -2 -22 -10 -10
-8 13 -10 12 -10 -2 0 -10 -5 -18 -11 -18 -5 0 -8 4 -4 9 3 5 1 12 -5 16 -5 3
-10 19 -10 34 0 28 0 28 -47 20 -27 -5 -86 -20 -133 -33 -47 -13 -101 -27
-120 -31 -19 -4 -84 -21 -145 -37 -60 -17 -157 -40 -215 -53 -58 -12 -112 -25
-121 -29 -12 -5 -18 2 -27 31 -6 20 -10 39 -7 41 2 2 55 17 117 32 62 16 156
40 208 54 52 14 106 28 120 32 14 4 77 21 140 39 63 19 189 52 280 75 169 43
213 58 175 61 -14 0 -12 3 10 10 19 5 31 5 36 -2 4 -7 8 -5 12 5 7 18 69 36
98 29 15 -4 20 -2 15 5 -4 7 7 13 31 18 21 3 94 21 163 39 137 36 346 87 370
90 66 8 86 20 81 48 -2 14 113 59 151 59 21 -1 68 8 105 19 37 10 79 19 92 19
32 0 101 21 96 30 -6 9 122 36 260 55 61 8 137 21 170 28 81 18 105 12 105
-24z m-3713 15 c-3 -3 -12 -4 -19 -1 -8 3 -5 6 6 6 11 1 17 -2 13 -5z m3124
-9 c-18 -8 -41 -15 -50 -15 -22 1 39 28 64 29 13 0 9 -5 -14 -14z m-2737 -51
c3 -8 2 -12 -4 -9 -6 3 -10 10 -10 16 0 14 7 11 14 -7z m-33 -25 c-9 -22 -10
-22 -10 -3 -1 11 2 24 6 27 12 12 14 0 4 -24z m79 -34 c1 6 1 23 0 39 -3 40
17 24 22 -19 2 -20 -1 -36 -8 -39 -20 -8 -34 16 -33 54 l2 35 7 -40 c4 -22 8
-35 10 -30z m3404 46 c3 -5 -1 -12 -10 -15 -27 -10 -35 -7 -22 9 15 17 25 19
32 6z m374 -8 c12 -24 4 -43 -17 -43 -10 0 -83 -23 -162 -50 -136 -48 -410
-127 -654 -190 -136 -34 -185 -43 -186 -33 0 4 -2 16 -4 25 -2 13 10 21 50 33
29 8 58 15 64 15 6 0 11 5 11 10 0 6 13 10 29 10 16 0 42 5 58 11 15 7 55 20
88 29 33 10 94 28 135 40 41 12 80 26 85 30 6 4 28 11 50 14 22 4 69 16 105
28 103 32 303 86 322 87 10 1 21 -7 26 -16z m-3831 -89 c-3 -3 -12 -4 -19 -1
-8 3 -5 6 6 6 11 1 17 -2 13 -5z m-571 -49 c-17 -17 -30 -20 -21 -5 3 6 2 10
-4 10 -5 0 -13 -5 -16 -10 -4 -6 -30 -9 -58 -7 -29 2 -60 -1 -69 -7 -12 -7
-27 -7 -48 1 -16 6 -40 9 -52 6 -16 -4 -20 -3 -13 5 10 11 70 16 218 20 70 2
77 0 63 -13z m-323 -2 c-7 -2 -19 -2 -25 0 -7 3 -2 5 12 5 14 0 19 -2 13 -5z
m272 -38 c-36 -16 -217 -24 -203 -9 3 3 41 8 84 11 44 3 81 7 83 9 2 2 18 4
35 3 l31 -1 -30 -13z m-282 -2 c-7 -2 -21 -2 -30 0 -10 3 -4 5 12 5 17 0 24
-2 18 -5z m-12 -31 c-7 -2 -18 1 -23 6 -8 8 -4 9 13 5 13 -4 18 -8 10 -11z
m270 -5 c-5 -5 -62 -10 -127 -11 l-119 -4 100 12 c118 13 157 14 146 3z m-294
-13 c-3 -3 -12 -4 -19 -1 -8 3 -5 6 6 6 11 1 17 -2 13 -5z m40 -10 c-3 -3 -12
-4 -19 -1 -8 3 -5 6 6 6 11 1 17 -2 13 -5z m163 -20 c-25 -7 -72 -13 -105 -12
l-60 1 80 12 c111 17 140 17 85 -1z m4268 11 c-4 -5 -96 -25 -128 -28 -8 -1
-17 -5 -20 -8 -6 -7 -99 -32 -230 -63 -53 -12 -102 -26 -109 -31 -9 -5 -12 -4
-7 3 5 8 -2 8 -24 0 -17 -5 -29 -13 -26 -15 10 -11 -26 -36 -72 -49 -26 -8
-108 -31 -182 -50 -74 -20 -184 -49 -245 -65 -60 -17 -122 -33 -137 -36 -16
-3 -28 -10 -28 -15 0 -5 -10 -6 -21 -3 -15 5 -19 4 -15 -4 5 -7 -2 -11 -16
-11 -31 0 -286 -57 -318 -71 -34 -15 -170 -49 -197 -49 -12 0 -29 -7 -37 -16
-9 -8 -16 -12 -16 -8 0 3 -6 1 -14 -5 -7 -6 -22 -8 -31 -4 -13 4 -16 3 -11 -5
4 -8 1 -12 -10 -12 -10 0 -31 -4 -48 -9 -17 -5 -78 -19 -136 -31 -58 -12 -133
-30 -168 -42 -35 -11 -65 -18 -68 -15 -3 2 -7 27 -11 55 -7 61 -21 53 182 106
147 40 412 112 555 152 47 13 157 42 245 63 88 22 277 69 420 105 265 68 326
78 333 58 5 -16 30 -15 99 4 75 21 127 33 185 44 43 8 127 29 203 50 33 9 111
13 103 5z m-898 -93 c0 -13 -49 -33 -101 -41 -34 -6 -46 -4 -46 5 0 14 90 39
107 29 5 -3 10 -1 10 4 0 6 7 11 15 11 8 0 15 -4 15 -8z m-160 -46 c0 -2 -11
-6 -25 -8 -13 -3 -22 -1 -19 3 5 9 44 13 44 5z m-1195 -42 c-27 -7 -54 -13
-60 -13 -17 2 69 27 90 27 11 0 -2 -6 -30 -14z m-1606 2 c-8 -8 -280 -67 -292
-63 -15 5 218 63 262 65 19 1 32 0 30 -2z m-379 -95 c-8 -5 -31 -11 -50 -15
l-35 -6 35 14 c41 17 75 21 50 7z m-105 -31 c-11 -5 -27 -9 -35 -9 -9 0 -8 4
5 9 11 5 27 9 35 9 9 0 8 -4 -5 -9z m-68 -16 c-3 -3 -12 -4 -19 -1 -8 3 -5 6
6 6 11 1 17 -2 13 -5z m-349 -509 c-3 -3 -9 2 -12 12 -6 14 -5 15 5 6 7 -7 10
-15 7 -18z m-668 -255 c0 -14 -40 -37 -77 -45 -21 -4 -33 -3 -33 4 0 6 15 20
33 31 34 21 77 27 77 10z"/>
<path d="M2216 5933 c-7 -16 28 -63 47 -63 11 0 0 49 -15 67 -14 18 -25 16
-32 -4z"/>
<path d="M3095 5700 c3 -5 8 -10 11 -10 2 0 4 5 4 10 0 6 -5 10 -11 10 -5 0
-7 -4 -4 -10z"/>
<path d="M1880 5555 c0 -8 9 -15 19 -15 10 0 21 7 25 15 4 11 -1 15 -19 15
-16 0 -25 -6 -25 -15z"/>
<path d="M1935 5389 c-66 -4 -176 -9 -245 -11 l-125 -3 -3 -152 c-2 -132 0
-153 13 -153 12 0 15 19 16 113 1 61 2 124 2 140 l0 27 220 0 220 0 -6 -35 -6
-35 88 0 88 0 11 -37 c6 -21 16 -78 22 -128 16 -133 10 -125 89 -125 37 0 109
-3 159 -6 89 -7 92 -6 92 14 0 21 -4 22 -157 24 -131 3 -158 6 -159 18 -1 8
-10 79 -20 157 -10 79 -14 146 -10 150 4 5 113 8 242 8 l234 0 0 23 0 22 -262
-2 -263 -3 3 -41 3 -40 -58 0 -58 1 3 43 c2 23 0 41 -5 41 -4 -1 -62 -5 -128
-10z"/>
<path d="M2557 5153 c-9 -25 -16 -48 -14 -50 2 -2 12 17 22 42 9 26 15 48 13
50 -2 2 -12 -17 -21 -42z"/>
<path d="M4710 3430 c-9 -6 -10 -10 -3 -10 6 0 15 5 18 10 8 12 4 12 -15 0z"/>
<path d="M7170 3405 c-8 -9 -8 -15 -2 -15 12 0 26 19 19 26 -2 2 -10 -2 -17
-11z"/>
<path d="M7141 3394 c0 -11 3 -14 6 -6 3 7 2 16 -1 19 -3 4 -6 -2 -5 -13z"/>
<path d="M4305 3354 c-38 -13 -83 -26 -99 -29 -15 -3 -26 -9 -23 -12 11 -10
152 27 177 47 14 11 23 19 20 18 -3 0 -36 -11 -75 -24z"/>
<path d="M7140 3313 c-92 -19 -143 -34 -138 -38 2 -2 28 2 58 10 30 8 66 15
80 15 14 1 39 7 55 15 37 17 28 16 -55 -2z"/>
<path d="M6958 3263 c7 -3 16 -2 19 1 4 3 -2 6 -13 5 -11 0 -14 -3 -6 -6z"/>
<path d="M5623 2923 c9 -2 25 -2 35 0 9 3 1 5 -18 5 -19 0 -27 -2 -17 -5z"/>
<path d="M4085 2890 c3 -5 10 -10 16 -10 5 0 9 5 9 10 0 6 -7 10 -16 10 -8 0
-12 -4 -9 -10z"/>
<path d="M4045 2880 c3 -5 8 -10 11 -10 2 0 4 5 4 10 0 6 -5 10 -11 10 -5 0
-7 -4 -4 -10z"/>
<path d="M4998 2853 c7 -3 16 -2 19 1 4 3 -2 6 -13 5 -11 0 -14 -3 -6 -6z"/>
<path d="M5047 2844 c-22 -12 -26 -18 -17 -29 6 -8 19 -14 28 -14 9 0 29 -3
45 -7 21 -5 27 -3 27 10 0 14 3 15 23 5 12 -7 25 -17 29 -23 5 -8 8 -7 8 1 0
16 -51 42 -69 35 -8 -2 -11 0 -7 6 3 5 -1 13 -10 16 -8 3 -13 2 -10 -3 3 -5
-1 -12 -10 -15 -23 -9 -31 -7 -15 3 26 17 7 30 -22 15z m3 -24 c0 -5 -2 -10
-4 -10 -3 0 -8 5 -11 10 -3 6 -1 10 4 10 6 0 11 -4 11 -10z"/>
<path d="M4120 2820 c0 -5 5 -10 11 -10 5 0 7 5 4 10 -3 6 -8 10 -11 10 -2 0
-4 -4 -4 -10z"/>
<path d="M5140 2796 c0 -2 7 -9 15 -16 9 -7 15 -8 15 -2 0 5 -7 12 -15 16 -8
3 -15 4 -15 2z"/>
<path d="M4636 2775 c-11 -8 -15 -15 -10 -15 6 0 19 7 30 15 10 8 15 14 9 14
-5 0 -19 -6 -29 -14z"/>
<path d="M3588 2773 c7 -3 16 -2 19 1 4 3 -2 6 -13 5 -11 0 -14 -3 -6 -6z"/>
<path d="M3643 2772 c-8 -5 1 -8 22 -8 21 0 30 3 22 8 -6 4 -16 8 -22 8 -5 0
-16 -4 -22 -8z"/>
<path d="M4675 2760 c-18 -9 -18 -9 5 -8 14 1 39 0 55 -1 24 -1 27 -3 15 -11
-11 -8 -8 -9 13 -4 16 4 33 1 42 -6 12 -10 15 -9 15 4 0 9 -3 15 -7 14 -7 -2
-66 8 -103 17 -8 2 -24 -1 -35 -5z"/>
<path d="M3530 2750 c12 -8 9 -10 -12 -10 -15 0 -30 -4 -33 -10 -8 -13 4 -13
44 1 24 9 29 14 19 20 -7 5 -17 9 -23 9 -5 0 -3 -5 5 -10z"/>
<path d="M3592 2740 c7 -11 17 -20 22 -20 4 0 3 6 -3 13 -6 8 -8 17 -4 20 3 4
-1 7 -10 7 -15 0 -15 -3 -5 -20z"/>
<path d="M4763 2713 c9 -2 23 -2 30 0 6 3 -1 5 -18 5 -16 0 -22 -2 -12 -5z"/>
<path d="M3755 2650 c-3 -5 -3 -15 0 -20 9 -15 94 -56 133 -65 18 -3 30 -10
27 -15 -3 -5 -1 -11 4 -14 5 -4 8 1 7 10 -1 8 -9 20 -17 25 -12 7 -12 9 1 9
17 0 -118 79 -137 80 -6 0 -15 -4 -18 -10z"/>
<path d="M2805 2610 c-25 -11 1 -11 35 0 20 6 21 8 5 8 -11 0 -29 -3 -40 -8z"/>
<path d="M2779 2587 c5 -5 19 -7 32 -5 20 3 19 5 -9 9 -20 3 -29 2 -23 -4z"/>
<path d="M3920 2509 c0 -5 26 -9 57 -9 31 0 54 2 52 4 -10 9 -109 14 -109 5z"/>
<path d="M1790 4940 c-9 -6 -10 -10 -3 -10 6 0 15 5 18 10 8 12 4 12 -15 0z"/>
<path d="M2021 3824 c0 -11 3 -14 6 -6 3 7 2 16 -1 19 -3 4 -6 -2 -5 -13z"/>
<path d="M2230 3471 c0 -6 4 -13 10 -16 6 -3 7 1 4 9 -7 18 -14 21 -14 7z"/>
<path d="M2288 3379 c-8 -6 1 -9 25 -9 20 0 37 2 37 4 0 9 -50 12 -62 5z"/>
<path d="M2310 3350 l-35 -7 38 -2 c20 0 37 4 37 9 0 6 -1 9 -2 9 -2 -1 -19
-5 -38 -9z"/>
<path d="M2310 3320 l-35 -7 43 -2 c23 0 42 4 42 9 0 6 -3 9 -7 9 -5 -1 -24
-5 -43 -9z"/>
<path d="M2300 3290 c-13 -8 -12 -10 3 -10 9 0 17 5 17 10 0 12 -1 12 -20 0z"/>
<path d="M2300 3240 c0 -5 4 -10 9 -10 6 0 13 5 16 10 3 6 -1 10 -9 10 -9 0
-16 -4 -16 -10z"/>
<path d="M6591 2569 c-68 -13 -73 -19 -11 -13 51 6 110 25 70 23 -8 -1 -35 -5
-59 -10z"/>
<path d="M7345 2520 c-13 -5 -14 -9 -5 -9 8 0 24 4 35 9 13 5 14 9 5 9 -8 0
-24 -4 -35 -9z"/>
<path d="M7298 2503 c7 -3 16 -2 19 1 4 3 -2 6 -13 5 -11 0 -14 -3 -6 -6z"/>
<path d="M7225 2491 c-11 -5 -23 -7 -27 -4 -5 2 -8 -1 -8 -7 0 -10 33 -6 75
11 l20 8 -20 0 c-11 0 -29 -4 -40 -8z"/>
<path d="M7108 2463 c7 -3 16 -2 19 1 4 3 -2 6 -13 5 -11 0 -14 -3 -6 -6z"/>
<path d="M2868 2443 c-10 -2 -18 -9 -18 -14 0 -6 7 -6 18 -1 9 5 24 12 32 15
13 5 13 5 0 5 -8 0 -23 -2 -32 -5z"/>
<path d="M2786 2421 c-14 -5 -16 -10 -8 -15 7 -4 19 0 28 8 17 17 11 19 -20 7z"/>
<path d="M2833 2295 c-36 -15 -37 -45 -2 -45 10 0 19 -4 19 -9 0 -4 -11 -6
-25 -3 -14 2 -25 0 -25 -6 0 -6 17 -12 38 -14 l37 -4 -35 -11 -35 -11 53 -1
c44 -1 52 2 50 16 -2 11 6 19 22 24 23 6 23 7 3 8 -12 1 -29 4 -39 8 -13 5
-15 3 -9 -7 5 -9 4 -11 -3 -6 -17 10 -15 15 12 26 18 7 23 14 19 29 -6 25 -33
27 -80 6z m51 -14 c4 -5 -3 -7 -14 -4 -23 6 -26 13 -6 13 8 0 17 -4 20 -9z
m-47 -7 c-3 -3 -12 -4 -19 -1 -8 3 -5 6 6 6 11 1 17 -2 13 -5z"/>
<path d="M2330 2272 c-9 -9 -22 -25 -30 -35 -13 -18 -12 -18 19 -14 42 7 52
17 45 45 -7 26 -14 27 -34 4z"/>
<path d="M2770 2271 c0 -5 5 -13 10 -16 6 -3 10 -2 10 4 0 5 -4 13 -10 16 -5
3 -10 2 -10 -4z"/>
<path d="M2230 2175 c0 -8 5 -15 10 -15 6 0 10 7 10 15 0 8 -4 15 -10 15 -5 0
-10 -7 -10 -15z"/>
<path d="M6565 2180 c-16 -7 -17 -9 -3 -9 9 -1 20 4 23 9 7 11 7 11 -20 0z"/>
<path d="M2835 2171 c-3 -5 5 -12 17 -14 20 -4 19 -4 -4 -6 -30 -1 -39 -21
-10 -21 12 0 13 -3 5 -8 -7 -4 -15 -28 -18 -52 -3 -24 -11 -50 -17 -57 -8 -10
0 -13 41 -13 47 0 68 12 39 23 -20 7 29 17 137 26 l100 8 -135 2 c-86 2 -128
6 -115 11 11 5 49 9 84 9 83 1 75 8 -18 15 -79 7 -107 16 -50 16 29 1 31 2 16
11 -10 6 -25 8 -33 5 -9 -3 -12 -1 -9 4 3 6 18 10 32 10 24 0 25 13 2 16 -22
3 -22 7 1 14 21 7 19 8 -17 9 -23 1 -44 -3 -48 -8z"/>
<path d="M2938 2173 c7 -3 16 -2 19 1 4 3 -2 6 -13 5 -11 0 -14 -3 -6 -6z"/>
<path d="M2943 2143 c9 -2 25 -2 35 0 9 3 1 5 -18 5 -19 0 -27 -2 -17 -5z"/>
<path d="M2938 2113 c7 -3 16 -2 19 1 4 3 -2 6 -13 5 -11 0 -14 -3 -6 -6z"/>
<path d="M2978 2113 c7 -3 16 -2 19 1 4 3 -2 6 -13 5 -11 0 -14 -3 -6 -6z"/>
<path d="M5128 2033 c-37 -76 -35 -75 -195 -109 -45 -10 -80 -21 -77 -25 5 -8
-129 -33 -164 -31 -15 1 -21 -2 -16 -9 4 -8 -1 -9 -15 -4 -13 4 -21 2 -21 -5
0 -7 -10 -9 -27 -6 -16 3 -41 2 -58 -3 -29 -9 -29 -9 -5 -11 l25 -2 -25 -8
c-14 -4 -36 -8 -50 -8 l-25 0 25 8 c30 10 5 12 -28 3 -18 -4 -21 -8 -10 -15 8
-6 -2 -8 -32 -4 -31 3 -39 2 -25 -4 16 -7 17 -9 3 -9 -9 -1 -25 -4 -35 -7 -15
-5 -16 -4 -3 6 13 10 12 11 -3 6 -10 -3 -26 -6 -35 -7 -14 0 -13 -2 3 -10 15
-7 9 -8 -20 -4 -23 3 -35 2 -27 -3 13 -9 -77 -42 -115 -42 -12 0 -73 -13 -136
-29 -64 -16 -126 -27 -139 -25 -20 4 -20 3 -4 -4 16 -7 6 -11 -43 -21 -56 -11
-85 -31 -68 -47 13 -13 1315 295 1361 322 16 9 21 27 25 93 4 44 3 81 -1 81
-5 0 -23 -30 -40 -67z"/>
<path d="M2933 2009 c-10 -4 10 -8 47 -8 68 1 71 5 8 11 -20 2 -45 1 -55 -3z"/>
<path d="M3063 2003 c9 -2 23 -2 30 0 6 3 -1 5 -18 5 -16 0 -22 -2 -12 -5z"/>
<path d="M3028 1953 c12 -2 30 -2 40 0 9 3 -1 5 -23 4 -22 0 -30 -2 -17 -4z"/>
<path d="M2920 1941 c0 -5 -10 -12 -22 -14 -13 -2 -4 -5 19 -6 23 0 44 3 47 8
3 4 18 6 33 4 22 -4 25 -2 13 6 -19 13 -90 14 -90 2z"/>
<path d="M3048 1933 c7 -3 16 -2 19 1 4 3 -2 6 -13 5 -11 0 -14 -3 -6 -6z"/>
<path d="M2619 1872 c-8 -11 -18 -20 -24 -22 -27 -7 -36 -14 -31 -25 6 -16
-11 -42 -21 -32 -4 5 -1 12 7 17 8 6 10 10 4 10 -14 0 -37 -27 -40 -46 -2 -10
8 -14 29 -14 l32 1 -30 15 c-16 8 -21 12 -11 9 10 -3 29 2 42 10 23 15 24 14
25 -7 0 -22 1 -22 9 -3 14 32 12 48 -5 41 -8 -3 -15 -1 -15 4 0 6 7 10 15 10
8 0 19 9 25 21 15 27 6 36 -11 11z"/>
<path d="M1831 1869 c-18 -7 -21 -13 -14 -20 13 -13 65 1 71 19 4 14 -23 15
-57 1z"/>
<path d="M4198 1753 c6 -2 18 -2 25 0 6 3 1 5 -13 5 -14 0 -19 -2 -12 -5z"/>
<path d="M4568 1723 c6 -2 18 -2 25 0 6 3 1 5 -13 5 -14 0 -19 -2 -12 -5z"/>
<path d="M4518 1713 c6 -2 18 -2 25 0 6 3 1 5 -13 5 -14 0 -19 -2 -12 -5z"/>
<path d="M4468 1703 c6 -2 18 -2 25 0 6 3 1 5 -13 5 -14 0 -19 -2 -12 -5z"/>
<path d="M2593 1683 c9 -2 25 -2 35 0 9 3 1 5 -18 5 -19 0 -27 -2 -17 -5z"/>
<path d="M2390 1669 c0 -5 5 -7 10 -4 6 3 10 8 10 11 0 2 -4 4 -10 4 -5 0 -10
-5 -10 -11z"/>
<path d="M4318 1663 c7 -3 16 -2 19 1 4 3 -2 6 -13 5 -11 0 -14 -3 -6 -6z"/>
<path d="M3730 1600 c-12 -8 -11 -10 7 -10 12 0 25 5 28 10 8 13 -15 13 -35 0z"/>
<path d="M2066 1365 c-11 -8 -17 -17 -14 -20 2 -3 13 4 23 15 21 23 18 25 -9
5z"/>
<path d="M2101 1081 c-9 -6 -10 -11 -2 -15 6 -4 18 0 27 8 12 12 12 16 2 16
-7 0 -19 -4 -27 -9z"/>
<path d="M5441 1709 c-55 -16 -28 -20 30 -5 30 8 43 15 29 14 -14 0 -40 -4
-59 -9z"/>
<path d="M5325 1680 c-19 -8 -19 -9 2 -9 12 -1 25 4 28 9 7 12 -2 12 -30 0z"/>
</g>
</svg>
