<?xml version='1.0' encoding='iso-8859-1'?>
<!-- Uploaded to: SVG Repo, www.svgrepo.com, Generator: SVG Repo Mixer Tools -->
<svg fill="#000000" height="800px" width="800px" version="1.1" xmlns="http://www.w3.org/2000/svg" viewBox="0 0 511 511" xmlns:xlink="http://www.w3.org/1999/xlink" enable-background="new 0 0 511 511">
  <g>
    <path d="M415.5,0h-352C54.953,0,48,6.953,48,15.5V32H31.5C22.953,32,16,38.953,16,47.5v448c0,8.547,6.953,15.5,15.5,15.5h352   c8.547,0,15.5-6.953,15.5-15.5V479h16.5c8.547,0,15.5-6.953,15.5-15.5v-448C431,6.953,424.047,0,415.5,0z M384,471.423   c0,0.026-0.004,0.051-0.004,0.077s0.004,0.051,0.004,0.077V495.5c0,0.276-0.224,0.5-0.5,0.5h-352c-0.276,0-0.5-0.224-0.5-0.5v-448   c0-0.276,0.224-0.5,0.5-0.5h23.971c0.01,0,0.019,0.001,0.029,0.001S55.519,47,55.529,47H383.5c0.276,0,0.5,0.224,0.5,0.5V471.423z    M416,463.5c0,0.276-0.224,0.5-0.5,0.5H399V47.5c0-8.547-6.953-15.5-15.5-15.5H63V15.5c0-0.276,0.224-0.5,0.5-0.5h352   c0.276,0,0.5,0.224,0.5,0.5V463.5z"/>
    <path d="M335,104H79c-4.142,0-7.5,3.358-7.5,7.5s3.358,7.5,7.5,7.5h256c4.142,0,7.5-3.358,7.5-7.5S339.142,104,335,104z"/>
    <path d="M335,200H79c-4.142,0-7.5,3.358-7.5,7.5s3.358,7.5,7.5,7.5h256c4.142,0,7.5-3.358,7.5-7.5S339.142,200,335,200z"/>
    <path d="M335,424H79c-4.142,0-7.5,3.358-7.5,7.5s3.358,7.5,7.5,7.5h256c4.142,0,7.5-3.358,7.5-7.5S339.142,424,335,424z"/>
    <path d="M335,296H79c-4.142,0-7.5,3.358-7.5,7.5s3.358,7.5,7.5,7.5h256c4.142,0,7.5-3.358,7.5-7.5S339.142,296,335,296z"/>
    <path d="M79,151h64c4.142,0,7.5-3.358,7.5-7.5s-3.358-7.5-7.5-7.5H79c-4.142,0-7.5,3.358-7.5,7.5S74.858,151,79,151z"/>
    <path d="m335,136h-160c-4.142,0-7.5,3.358-7.5,7.5s3.358,7.5 7.5,7.5h160c4.142,0 7.5-3.358 7.5-7.5s-3.358-7.5-7.5-7.5z"/>
    <path d="M79,183h192c4.142,0,7.5-3.358,7.5-7.5s-3.358-7.5-7.5-7.5H79c-4.142,0-7.5,3.358-7.5,7.5S74.858,183,79,183z"/>
    <path d="m335,168h-32c-4.142,0-7.5,3.358-7.5,7.5s3.358,7.5 7.5,7.5h32c4.142,0 7.5-3.358 7.5-7.5s-3.358-7.5-7.5-7.5z"/>
    <path d="M335,392H79c-4.142,0-7.5,3.358-7.5,7.5s3.358,7.5,7.5,7.5h256c4.142,0,7.5-3.358,7.5-7.5S339.142,392,335,392z"/>
    <path d="M79,343h64c4.142,0,7.5-3.358,7.5-7.5s-3.358-7.5-7.5-7.5H79c-4.142,0-7.5,3.358-7.5,7.5S74.858,343,79,343z"/>
    <path d="m335,328h-160c-4.142,0-7.5,3.358-7.5,7.5s3.358,7.5 7.5,7.5h160c4.142,0 7.5-3.358 7.5-7.5s-3.358-7.5-7.5-7.5z"/>
    <path d="M79,375h192c4.142,0,7.5-3.358,7.5-7.5s-3.358-7.5-7.5-7.5H79c-4.142,0-7.5,3.358-7.5,7.5S74.858,375,79,375z"/>
    <path d="m335,360h-32c-4.142,0-7.5,3.358-7.5,7.5s3.358,7.5 7.5,7.5h32c4.142,0 7.5-3.358 7.5-7.5s-3.358-7.5-7.5-7.5z"/>
    <path d="M79,247h104c4.142,0,7.5-3.358,7.5-7.5s-3.358-7.5-7.5-7.5H79c-4.142,0-7.5,3.358-7.5,7.5S74.858,247,79,247z"/>
    <path d="m335,232h-120c-4.142,0-7.5,3.358-7.5,7.5s3.358,7.5 7.5,7.5h120c4.142,0 7.5-3.358 7.5-7.5s-3.358-7.5-7.5-7.5z"/>
    <path d="M79,279h168c4.142,0,7.5-3.358,7.5-7.5s-3.358-7.5-7.5-7.5H79c-4.142,0-7.5,3.358-7.5,7.5S74.858,279,79,279z"/>
    <path d="m335,264h-56c-4.142,0-7.5,3.358-7.5,7.5s3.358,7.5 7.5,7.5h56c4.142,0 7.5-3.358 7.5-7.5s-3.358-7.5-7.5-7.5z"/>
    <path d="m471.5,144c-12.958,0-23.5,10.542-23.5,23.5v280c0,0.806 0.13,1.607 0.385,2.372l15.615,46.845v6.783c0,4.142 3.358,7.5 7.5,7.5s7.5-3.358 7.5-7.5v-6.783l15.615-46.846c0.255-0.765 0.385-1.565 0.385-2.372v-280c0-12.957-10.542-23.499-23.5-23.499zm0,327.783l-8.261-24.783h16.522l-8.261,24.783zm8.5-39.783h-17v-241h17v241zm0-256h-17v-8.5c0-4.687 3.813-8.5 8.5-8.5s8.5,3.813 8.5,8.5v8.5z"/>
  </g>
</svg>